<?xml version="1.0" encoding="UTF-8" standalone="no"?><!DOCTYPE svg PUBLIC "-//W3C//DTD SVG 1.1//EN" "http://www.w3.org/Graphics/SVG/1.1/DTD/svg11.dtd"><svg width="100" height="100" viewBox="0 0 326 275" version="1.1" xmlns="http://www.w3.org/2000/svg" xmlns:xlink="http://www.w3.org/1999/xlink" xml:space="preserve" xmlns:serif="http://www.serif.com/" style="fill-rule:evenodd;clip-rule:evenodd;stroke-linejoin:round;stroke-miterlimit:1.41421;"><g id="OBJECTS"><path d="M82.161,202l66.203,-124.678l16.062,30.07l-50.186,94.608l-32.079,0Z" style="fill:#ff1f1f;fill-rule:nonzero;"/><path d="M180.469,77.224c11.16,-21.654 33.653,-35.851 58.813,-35.851c17.714,0 34.981,7.282 47.372,19.979l4.65,4.766l14.009,-26.223l-2.839,-2.553c-17.394,-15.644 -39.834,-24.259 -63.192,-24.259c-17.947,0 -35.421,5.078 -50.534,14.684c-8.957,5.694 -16.841,12.819 -23.382,21.038l15.103,28.419Z" style="fill:#ff1f1f;fill-rule:nonzero;"/><path d="M121.873,127.212l16.015,-30.161l16.02,30.17l-16.008,30.176l-16.027,-30.185Z" style="fill:#b3135b;fill-rule:nonzero;"/><path d="M239.282,202c-31.282,0 -60.9,-15.903 -78.377,-41.791c0,0 -5.751,-9.671 -6.82,-11.896l-43.004,-80.986l-71.559,134.673l-31.979,0l103.54,-194.994l71.09,133.882c11.867,20.25 33.741,32.823 57.109,32.823c18.289,0 35.938,-7.682 48.423,-21.077l4.651,-4.99l14.101,26.399l-2.741,2.557c-17.567,16.379 -40.451,25.4 -64.434,25.4" style="fill:#3e495b;fill-rule:nonzero;"/></g><g id="TEXTS"><g transform="matrix(1,0,0,1,-93,-103.71)"><text x="125.968px" y="351.681px" style="font-family:'Arial-BoldMT', 'Arial', sans-serif;font-weight:700;font-size:41.706px;fill:#363e51;">N</text><text x="157.187px" y="351.681px" style="font-family:'Arial-BoldMT', 'Arial', sans-serif;font-weight:700;font-size:41.706px;fill:#363e51;">A</text><text x="187.756px" y="351.681px" style="font-family:'Arial-BoldMT', 'Arial', sans-serif;font-weight:700;font-size:41.706px;fill:#363e51;">M</text><text x="223.897px" y="351.681px" style="font-family:'Arial-BoldMT', 'Arial', sans-serif;font-weight:700;font-size:41.706px;fill:#363e51;">E</text><text x="250.064px" y="351.681px" style="font-family:'Arial-BoldMT', 'Arial', sans-serif;font-weight:700;font-size:41.706px;fill:#ff1f1f;">L</text><text x="272.39px" y="351.681px" style="font-family:'Arial-BoldMT', 'Arial', sans-serif;font-weight:700;font-size:41.706px;fill:#ff1f1f;">O</text><text x="306.73px" y="351.681px" style="font-family:'Arial-BoldMT', 'Arial', sans-serif;font-weight:700;font-size:41.706px;fill:#ff1f1f;">G</text><text x="340.17px" y="351.681px" style="font-family:'Arial-BoldMT', 'Arial', sans-serif;font-weight:700;font-size:41.706px;fill:#ff1f1f;">O</text><text x="166.142px" y="368.94px" style="font-family:'Lato-Regular', 'Lato', sans-serif;font-size:12.975px;fill:#272a30;">T</text><text x="175.485px" y="368.94px" style="font-family:'Lato-Regular', 'Lato', sans-serif;font-size:12.975px;fill:#272a30;">A</text><text x="186.607px" y="368.94px" style="font-family:'Lato-Regular', 'Lato', sans-serif;font-size:12.975px;fill:#272a30;">G L <tspan x="207.909px " y="368.94px ">I</tspan></text><text x="214.192px" y="368.94px" style="font-family:'Lato-Regular', 'Lato', sans-serif;font-size:12.975px;fill:#272a30;">N</text><text x="226.657px" y="368.94px" style="font-family:'Lato-Regular', 'Lato', sans-serif;font-size:12.975px;fill:#272a30;">E <tspan x="242.67px " y="368.94px ">G</tspan> O <tspan x="267.656px " y="368.94px ">E</tspan> S <tspan x="293.338px " y="368.94px ">H</tspan></text><text x="305.855px" y="368.94px" style="font-family:'Lato-Regular', 'Lato', sans-serif;font-size:12.975px;fill:#272a30;">E R</text><text x="326.654px" y="368.94px" style="font-family:'Lato-Regular', 'Lato', sans-serif;font-size:12.975px;fill:#272a30;">E</text></g></g></svg>